<svg width="249" height="194" viewBox="0 0 249 194" fill="none" xmlns="http://www.w3.org/2000/svg">
<path fill-rule="evenodd" clip-rule="evenodd" d="M176.146 29.1669C153.864 30.5802 126.527 38.6255 99.4411 52.9966C72.3549 67.3677 50.7069 85.3121 37.5928 102.679C24.4431 120.093 20.0199 136.708 26.8469 148.588C33.6739 160.467 50.6644 165.721 73.0072 164.304C95.2893 162.89 122.626 154.845 149.712 140.474C176.798 126.103 198.446 108.158 211.56 90.7916C224.71 73.3775 229.133 56.7626 222.306 44.8829C215.479 33.0031 198.489 27.7497 176.146 29.1669ZM222.913 44.5612C208.846 20.0833 153.416 23.5991 99.1063 52.414C44.7967 81.229 12.1737 124.431 26.2406 148.909C40.3075 173.387 95.7375 169.871 150.047 141.056C204.357 112.241 236.98 69.0391 222.913 44.5612Z" fill="#F8F8F8" fill-opacity="0.63"/>
<path d="M122.971 45.1046C122.971 49.7338 119.731 53.4865 115.735 53.4865C111.739 53.4865 108.5 49.7338 108.5 45.1046C108.5 40.4754 111.739 36.7227 115.735 36.7227C119.731 36.7227 122.971 40.4754 122.971 45.1046Z" fill="#F8F8F8"/>
</svg>
