<svg width="72" height="105" viewBox="0 0 72 105" fill="none" xmlns="http://www.w3.org/2000/svg">
<path d="M35.5069 104.383L39.6047 76.2856C39.8548 74.5707 41.2017 73.2238 42.9166 72.9736L71.0138 68.8759L43.1485 64.812C41.3257 64.5461 39.9342 63.0466 39.8052 61.209L35.5069 0.0010376L31.2087 61.209C31.0796 63.0466 29.6881 64.5461 27.8653 64.812L0 68.8759L28.0972 72.9736C29.8121 73.2238 31.1591 74.5707 31.4092 76.2856L35.5069 104.383Z" fill="#F8F8F8"/>
<path d="M53.0562 68.1094C53.0562 68.1534 53.0206 68.1891 52.9766 68.1891C52.9326 68.1891 52.8969 68.1534 52.8969 68.1094H53.0562ZM52.8969 68.1094V29.1402H53.0562V68.1094H52.8969Z" fill="#F8F8F8"/>
<path d="M17.0797 67.9688C17.0797 68.0128 17.044 68.0484 17 68.0484C16.956 68.0484 16.9203 68.0128 16.9203 67.9688H17.0797ZM16.9203 67.9688V28.9995H17.0797V67.9688H16.9203Z" fill="#F8F8F8"/>
</svg>
