<svg width="85" height="62" viewBox="0 0 85 62" fill="none" xmlns="http://www.w3.org/2000/svg">
<path d="M67 26L68.6053 37.0072C69.0122 39.7968 71.2032 41.9878 73.9928 42.3947L85 44L73.9928 45.6053C71.2032 46.0122 69.0122 48.2032 68.6053 50.9928L67 62L65.3947 50.9928C64.9878 48.2032 62.7968 46.0122 60.0072 45.6053L49 44L60.0072 42.3947C62.7968 41.9878 64.9878 39.7968 65.3947 37.0072L67 26Z" fill="#F8F8F8"/>
<path d="M26.5 0L29.1872 18.4254C29.594 21.215 31.785 23.406 34.5746 23.8128L53 26.5L34.5746 29.1872C31.785 29.594 29.594 31.785 29.1872 34.5746L26.5 53L23.8128 34.5746C23.406 31.785 21.215 29.594 18.4254 29.1872L0 26.5L18.4254 23.8128C21.215 23.406 23.406 21.215 23.8128 18.4254L26.5 0Z" fill="#F8F8F8"/>
</svg>
