<svg width="15" height="22" viewBox="0 0 15 22" fill="none" xmlns="http://www.w3.org/2000/svg">
<path id="Vector" d="M7.5 10.125C6.7896 10.125 6.10829 9.84428 5.60596 9.34459C5.10363 8.84491 4.82143 8.16719 4.82143 7.46053C4.82143 6.75386 5.10363 6.07614 5.60596 5.57646C6.10829 5.07677 6.7896 4.79605 7.5 4.79605C8.2104 4.79605 8.89171 5.07677 9.39404 5.57646C9.89637 6.07614 10.1786 6.75386 10.1786 7.46053C10.1786 7.81043 10.1093 8.15691 9.97468 8.48018C9.84007 8.80344 9.64276 9.09717 9.39404 9.34459C9.14531 9.59201 8.85002 9.78828 8.52505 9.92218C8.20007 10.0561 7.85175 10.125 7.5 10.125ZM7.5 -2.30182e-09C5.51088 -1.69134e-09 3.60322 0.786017 2.1967 2.18514C0.790176 3.58426 1.68244e-09 5.48187 2.28971e-09 7.46053C4.00699e-09 13.0559 7.5 21.3158 7.5 21.3158C7.5 21.3158 15 13.0559 15 7.46053C15 5.48187 14.2098 3.58426 12.8033 2.18514C11.3968 0.786017 9.48912 -2.9123e-09 7.5 -2.30182e-09Z" fill="white"/>
</svg>
