<svg width="174" height="174" viewBox="0 0 174 174" fill="none" xmlns="http://www.w3.org/2000/svg">
<circle cx="87" cy="87" r="85.6406" stroke="white" stroke-width="2.71875"/>
<path d="M99.0417 89.3322C102.251 86.8074 104.593 83.3452 105.743 79.4272C106.893 75.5092 106.793 71.3302 105.457 67.4718C104.121 63.6133 101.615 60.2671 98.2891 57.8988C94.9629 55.5305 90.9812 54.2578 86.898 54.2578C82.8148 54.2578 78.8331 55.5305 75.5069 57.8988C72.1807 60.2671 69.6754 63.6133 68.3394 67.4718C67.0035 71.3302 66.9035 75.5092 68.0532 79.4272C69.2029 83.3452 71.5452 86.8074 74.7543 89.3322C69.2555 91.5352 64.4576 95.1892 60.8721 99.9045C57.2866 104.62 55.048 110.22 54.3947 116.107C54.3475 116.537 54.3853 116.972 54.5061 117.387C54.6269 117.803 54.8283 118.19 55.0989 118.527C55.6452 119.209 56.4398 119.645 57.3079 119.741C58.176 119.836 59.0465 119.583 59.7279 119.036C60.4093 118.49 60.8457 117.696 60.9412 116.827C61.66 110.429 64.711 104.519 69.5113 100.228C74.3116 95.9369 80.5247 93.5646 86.9635 93.5646C93.4023 93.5646 99.6154 95.9369 104.416 100.228C109.216 104.519 112.267 110.429 112.986 116.827C113.075 117.632 113.459 118.375 114.063 118.913C114.667 119.45 115.45 119.745 116.259 119.741H116.619C117.477 119.642 118.261 119.208 118.801 118.534C119.34 117.859 119.592 116.999 119.499 116.14C118.843 110.236 116.592 104.621 112.989 99.8989C109.385 95.1763 104.563 91.5236 99.0417 89.3322ZM86.898 87.0082C84.3085 87.0082 81.7771 86.2403 79.624 84.8016C77.4708 83.363 75.7927 81.3181 74.8017 78.9257C73.8107 76.5333 73.5514 73.9007 74.0566 71.3609C74.5618 68.8211 75.8088 66.4882 77.6399 64.6571C79.471 62.826 81.8039 61.5791 84.3437 61.0739C86.8835 60.5687 89.5161 60.8279 91.9085 61.8189C94.3009 62.8099 96.3457 64.4881 97.7844 66.6412C99.2231 68.7943 99.991 71.3257 99.991 73.9152C99.991 77.3877 98.6115 80.718 96.1561 83.1734C93.7007 85.6288 90.3705 87.0082 86.898 87.0082Z" fill="white"/>
</svg>
