<svg width="581" height="185" viewBox="0 0 581 185" fill="none" xmlns="http://www.w3.org/2000/svg">
<path d="M547.555 181.424C547.555 183.404 545.626 185.009 543.246 185.009C540.867 185.009 538.938 183.404 538.938 181.424C538.938 179.445 540.867 177.84 543.246 177.84C545.626 177.84 547.555 179.445 547.555 181.424Z" fill="#F8F8F8"/>
<path d="M27.2689 46.4943C27.2689 45.2938 27.6845 44.2779 28.5156 43.4468C29.3468 42.6156 30.3626 42.2001 31.5631 42.2001C32.7637 42.2001 33.7795 42.6156 34.6107 43.4468C35.4418 44.2779 35.8574 45.2938 35.8574 46.4943C35.8574 47.6948 35.4418 48.7107 34.6107 49.5418C33.7795 50.373 32.7637 50.7885 31.5631 50.7885C30.3626 50.7885 29.3468 50.373 28.5156 49.5418C27.6845 48.7107 27.2689 47.6948 27.2689 46.4943ZM31.5631 31.6723C33.364 31.6723 34.957 31.603 36.3422 31.4645C37.7275 31.2798 39.205 30.818 40.775 30.0792C42.3449 29.3404 44.1226 28.2322 46.1082 26.7547C48.1398 25.2771 50.6564 23.2223 53.6577 20.5903C54.4427 19.9439 55.2276 19.6207 56.0126 19.6207C56.9361 19.6207 57.7211 19.9439 58.3675 20.5903C59.014 21.2368 59.3372 22.0218 59.3372 22.9453C59.3372 23.4532 59.1987 23.938 58.9216 24.3998C58.6907 24.8615 58.3906 25.254 58.0212 25.5772C55.1122 28.163 52.5033 30.3101 50.1946 32.0186C47.9321 33.6809 45.7849 35.0199 43.7532 36.0358C41.7216 37.0054 39.7361 37.698 37.7967 38.1136C35.8574 38.5292 33.7795 38.737 31.5631 38.737C29.2082 38.737 27.038 38.5523 25.0525 38.1829C23.1132 37.7673 21.1508 37.0516 19.1653 36.0358C17.1798 35.0199 15.0557 33.6809 12.7932 32.0186C10.5306 30.3101 7.92175 28.163 4.96657 25.5772C4.59718 25.254 4.27395 24.8615 3.99691 24.3998C3.76603 23.938 3.6506 23.4532 3.6506 22.9453C3.6506 22.0218 3.97382 21.2368 4.62026 20.5903C5.26671 19.9439 6.05168 19.6207 6.97517 19.6207C7.43691 19.6207 7.85249 19.713 8.22188 19.8977C8.59128 20.0824 8.96068 20.3133 9.33007 20.5903C12.2852 23.1761 14.7556 25.2078 16.7411 26.6854C18.7728 28.163 20.5736 29.2712 22.1435 30.01C23.7596 30.7488 25.2834 31.2105 26.7148 31.3952C28.1462 31.5799 29.7623 31.6723 31.5631 31.6723ZM106.706 43.1697C108.276 43.1697 109.569 42.8927 110.585 42.3386C111.6 41.7383 112.385 41.0226 112.939 40.1915C113.54 39.3603 113.932 38.4599 114.117 37.4903C114.348 36.4744 114.463 35.5509 114.463 34.7198C114.463 33.8886 114.348 32.9882 114.117 32.0186C113.932 31.0027 113.54 30.0792 112.939 29.2481C112.385 28.4169 111.6 27.7243 110.585 27.1702C109.569 26.57 108.276 26.2698 106.706 26.2698H78.724C77.1079 26.2698 75.7919 26.57 74.7761 27.1702C73.8064 27.7243 73.0215 28.4169 72.4212 29.2481C71.8671 30.0792 71.4746 31.0027 71.2437 32.0186C71.059 32.9882 70.9667 33.8886 70.9667 34.7198C70.9667 35.5509 71.059 36.4744 71.2437 37.4903C71.4746 38.4599 71.8671 39.3603 72.4212 40.1915C73.0215 41.0226 73.8064 41.7383 74.7761 42.3386C75.7919 42.8927 77.1079 43.1697 78.724 43.1697H106.706ZM120.905 34.7198C120.905 36.4744 120.604 38.2521 120.004 40.0529C119.45 41.8076 118.619 43.4237 117.511 44.9013C116.403 46.3327 115.063 47.5101 113.494 48.4336C111.924 49.3571 110.146 49.8189 108.16 49.8189H76.5769C74.6838 49.7265 72.9984 49.2186 71.5208 48.2951C70.0432 47.3255 68.7734 46.1249 67.7114 44.6935C66.6955 43.2621 65.9106 41.6691 65.3565 39.9144C64.8024 38.1598 64.5253 36.4282 64.5253 34.7198C64.5253 32.9651 64.8024 31.2105 65.3565 29.4559C65.9568 27.6551 66.811 26.039 67.9192 24.6075C69.0274 23.13 70.3664 21.9294 71.9364 21.0059C73.5063 20.0824 75.284 19.6207 77.2695 19.6207H108.853C110.746 19.713 112.432 20.244 113.909 21.2137C115.387 22.1372 116.633 23.3147 117.649 24.7461C118.711 26.1775 119.519 27.7705 120.073 29.5251C120.627 31.2798 120.905 33.0113 120.905 34.7198ZM134.484 34.7198C134.484 35.5509 134.577 36.4744 134.761 37.4903C134.992 38.4599 135.385 39.3603 135.939 40.1915C136.539 41.0226 137.324 41.7383 138.294 42.3386C139.31 42.8927 140.626 43.1697 142.242 43.1697H169.808C171.378 43.1697 172.671 42.8927 173.687 42.3386C174.702 41.7383 175.487 41.0226 176.041 40.1915C176.642 39.3603 177.034 38.4599 177.219 37.4903C177.45 36.4744 177.565 35.5509 177.565 34.7198V23.0145C177.565 22.091 177.888 21.3061 178.535 20.6596C179.181 20.0132 179.966 19.6899 180.89 19.6899C181.813 19.6899 182.598 20.0132 183.245 20.6596C183.891 21.3061 184.214 22.091 184.214 23.0145V34.7198C184.214 36.4744 183.914 38.2521 183.314 40.0529C182.76 41.8076 181.929 43.4237 180.821 44.9013C179.712 46.3327 178.373 47.5101 176.803 48.4336C175.233 49.3571 173.456 49.8189 171.47 49.8189H139.887C137.994 49.7265 136.308 49.2186 134.831 48.2951C133.353 47.3255 132.083 46.1249 131.021 44.6935C130.005 43.2621 129.22 41.6691 128.666 39.9144C128.112 38.1598 127.835 36.4282 127.835 34.7198V23.0145C127.835 22.091 128.158 21.3061 128.805 20.6596C129.451 20.0132 130.236 19.6899 131.16 19.6899C132.083 19.6899 132.868 20.0132 133.515 20.6596C134.161 21.3061 134.484 22.091 134.484 23.0145V34.7198ZM242.121 19.6207C243.045 19.6207 243.83 19.9439 244.476 20.5903C245.123 21.2368 245.446 22.0218 245.446 22.9453C245.446 23.8687 245.123 24.6537 244.476 25.3002C243.83 25.9466 243.045 26.2698 242.121 26.2698H221.62V46.4943C221.62 47.4178 221.297 48.2028 220.65 48.8492C220.004 49.4957 219.219 49.8189 218.295 49.8189C217.372 49.8189 216.587 49.4957 215.94 48.8492C215.294 48.2028 214.971 47.4178 214.971 46.4943V26.2698H194.192C193.361 26.1775 192.645 25.8312 192.045 25.2309C191.445 24.5845 191.145 23.8226 191.145 22.9453C191.145 22.0218 191.468 21.2368 192.114 20.5903C192.761 19.9439 193.546 19.6207 194.469 19.6207H242.121ZM306.59 46.4943C306.59 47.4178 306.266 48.2028 305.62 48.8492C304.974 49.4957 304.189 49.8189 303.265 49.8189C302.342 49.8189 301.557 49.4957 300.91 48.8492C300.264 48.2028 299.941 47.4178 299.941 46.4943V38.0444H259.007V46.4943C259.007 47.4178 258.684 48.2028 258.037 48.8492C257.391 49.4957 256.606 49.8189 255.682 49.8189C254.759 49.8189 253.974 49.4957 253.327 48.8492C252.681 48.2028 252.358 47.4178 252.358 46.4943V22.9453C252.358 22.0218 252.681 21.2368 253.327 20.5903C253.974 19.9439 254.759 19.6207 255.682 19.6207C256.606 19.6207 257.391 19.9439 258.037 20.5903C258.684 21.2368 259.007 22.0218 259.007 22.9453V31.3952H299.941V22.9453C299.941 22.0218 300.264 21.2368 300.91 20.5903C301.557 19.9439 302.342 19.6207 303.265 19.6207C304.189 19.6207 304.974 19.9439 305.62 20.5903C306.266 21.2368 306.59 22.0218 306.59 22.9453V46.4943ZM355.684 43.1697C357.253 43.1697 358.546 42.8927 359.562 42.3386C360.578 41.7383 361.363 41.0226 361.917 40.1915C362.517 39.3603 362.91 38.4599 363.095 37.4903C363.325 36.4744 363.441 35.5509 363.441 34.7198C363.441 33.8886 363.325 32.9882 363.095 32.0186C362.91 31.0027 362.517 30.0792 361.917 29.2481C361.363 28.4169 360.578 27.7243 359.562 27.1702C358.546 26.57 357.253 26.2698 355.684 26.2698H327.702C326.086 26.2698 324.77 26.57 323.754 27.1702C322.784 27.7243 321.999 28.4169 321.399 29.2481C320.845 30.0792 320.452 31.0027 320.221 32.0186C320.037 32.9882 319.944 33.8886 319.944 34.7198C319.944 35.5509 320.037 36.4744 320.221 37.4903C320.452 38.4599 320.845 39.3603 321.399 40.1915C321.999 41.0226 322.784 41.7383 323.754 42.3386C324.77 42.8927 326.086 43.1697 327.702 43.1697H355.684ZM369.882 34.7198C369.882 36.4744 369.582 38.2521 368.982 40.0529C368.428 41.8076 367.597 43.4237 366.488 44.9013C365.38 46.3327 364.041 47.5101 362.471 48.4336C360.901 49.3571 359.124 49.8189 357.138 49.8189H325.555C323.661 49.7265 321.976 49.2186 320.498 48.2951C319.021 47.3255 317.751 46.1249 316.689 44.6935C315.673 43.2621 314.888 41.6691 314.334 39.9144C313.78 38.1598 313.503 36.4282 313.503 34.7198C313.503 32.9651 313.78 31.2105 314.334 29.4559C314.934 27.6551 315.789 26.039 316.897 24.6075C318.005 23.13 319.344 21.9294 320.914 21.0059C322.484 20.0824 324.262 19.6207 326.247 19.6207H357.831C359.724 19.713 361.409 20.244 362.887 21.2137C364.364 22.1372 365.611 23.3147 366.627 24.7461C367.689 26.1775 368.497 27.7705 369.051 29.5251C369.605 31.2798 369.882 33.0113 369.882 34.7198ZM376.813 22.9453C376.813 22.0218 377.136 21.2368 377.782 20.5903C378.429 19.9439 379.214 19.6207 380.137 19.6207H421.625C422.918 19.6207 424.118 19.8746 425.227 20.3826C426.381 20.8443 427.374 21.4908 428.205 22.3219C429.082 23.153 429.752 24.1227 430.213 25.2309C430.721 26.3391 430.975 27.5396 430.975 28.8325C430.975 30.1254 430.721 31.3259 430.213 32.4341C429.752 33.5423 429.082 34.512 428.205 35.3431C427.374 36.1743 426.381 36.8438 425.227 37.3517C424.118 37.8135 422.918 38.0444 421.625 38.0444H385.609C385.009 38.1367 384.501 38.4138 384.085 38.8755C383.669 39.3372 383.462 39.9144 383.462 40.607V46.4943C383.462 47.4178 383.115 48.2028 382.423 48.8492C381.776 49.4957 381.014 49.8189 380.137 49.8189C379.214 49.8189 378.429 49.4957 377.782 48.8492C377.136 48.2028 376.813 47.4178 376.813 46.4943V39.8452C376.813 38.6908 377.02 37.6057 377.436 36.5899C377.851 35.5278 378.429 34.6274 379.167 33.8886C379.952 33.1037 380.83 32.5034 381.799 32.0878C382.815 31.6261 383.923 31.3952 385.124 31.3952H421.902C422.595 31.3952 423.195 31.1643 423.703 30.7026C424.257 30.1947 424.534 29.5713 424.534 28.8325C424.534 28.1399 424.257 27.5396 423.703 27.0317C423.195 26.5238 422.595 26.2698 421.902 26.2698H380.137C379.214 26.2698 378.429 25.9466 377.782 25.3002C377.136 24.6537 376.813 23.8687 376.813 22.9453ZM444.54 46.4943C444.54 47.4178 444.217 48.2028 443.57 48.8492C442.924 49.4957 442.139 49.8189 441.215 49.8189C440.292 49.8189 439.507 49.4957 438.86 48.8492C438.214 48.2028 437.891 47.4178 437.891 46.4943V22.9453C437.891 22.0218 438.214 21.2368 438.86 20.5903C439.507 19.9439 440.292 19.6207 441.215 19.6207C442.139 19.6207 442.924 19.9439 443.57 20.5903C444.217 21.2368 444.54 22.0218 444.54 22.9453V46.4943ZM457.373 48.5722C456.68 49.4033 455.826 49.8189 454.81 49.8189C453.887 49.8189 453.102 49.4957 452.455 48.8492C451.809 48.2028 451.486 47.4178 451.486 46.4943C451.486 45.6632 451.716 44.9936 452.178 44.4857L469.009 21.8371C469.794 20.775 470.833 19.9208 472.126 19.2744C473.418 18.5818 474.804 18.2354 476.281 18.2354C477.667 18.2354 478.983 18.5356 480.229 19.1358C481.476 19.7361 482.492 20.5673 483.277 21.6293L500.107 44.1394C500.384 44.4626 500.615 44.832 500.8 45.2476C500.985 45.617 501.077 46.0326 501.077 46.4943C501.077 47.4178 500.754 48.2028 500.107 48.8492C499.461 49.4957 498.676 49.8189 497.753 49.8189C496.644 49.8189 495.767 49.3802 495.121 48.5029L478.983 26.9624C478.659 26.593 478.244 26.2006 477.736 25.785C477.274 25.3232 476.789 25.0924 476.281 25.0924C475.773 25.0924 475.265 25.3232 474.758 25.785C474.296 26.2006 473.926 26.593 473.649 26.9624L457.373 48.5722Z" fill="white"/>
<path d="M403.006 74.4543C403.474 74.4543 403.872 74.6494 404.199 75.0398C404.527 75.4301 404.691 75.9041 404.691 76.4618C404.691 77.0194 404.527 77.4934 404.199 77.8838C403.872 78.2741 403.474 78.4693 403.006 78.4693H378.92C378.452 78.4693 378.054 78.2741 377.726 77.8838C377.398 77.4934 377.234 77.0194 377.234 76.4618V72.4468C377.234 71.7497 377.34 71.0945 377.55 70.4811C377.761 69.8398 378.054 69.2961 378.428 68.85C378.826 68.376 379.271 68.0135 379.762 67.7626C380.277 67.4837 380.839 67.3443 381.448 67.3443H400.091C400.443 67.3443 400.747 67.2049 401.004 66.9261C401.285 66.6194 401.426 66.243 401.426 65.7969C401.426 65.3786 401.285 65.0162 401.004 64.7095C400.747 64.4028 400.443 64.2494 400.091 64.2494H378.92C378.452 64.2494 378.054 64.0542 377.726 63.6639C377.398 63.2735 377.234 62.7995 377.234 62.2419C377.234 61.6842 377.398 61.2102 377.726 60.8199C378.054 60.4295 378.452 60.2344 378.92 60.2344H399.951C400.606 60.2344 401.215 60.3877 401.777 60.6944C402.362 60.9733 402.865 61.3636 403.286 61.8655C403.731 62.3674 404.071 62.9529 404.305 63.6221C404.562 64.2912 404.691 65.0162 404.691 65.7969C404.691 66.5776 404.562 67.3025 404.305 67.9717C404.071 68.6408 403.731 69.2264 403.286 69.7282C402.865 70.2301 402.362 70.6344 401.777 70.9411C401.215 71.2199 400.606 71.3593 399.951 71.3593H381.658C381.354 71.4151 381.097 71.5824 380.886 71.8612C380.675 72.14 380.57 72.4886 380.57 72.9068V74.4543H403.006Z" fill="white"/>
<path d="M428.652 74.4543C429.448 74.4543 430.103 74.287 430.618 73.9524C431.133 73.5899 431.531 73.1577 431.812 72.6559C432.116 72.154 432.315 71.6103 432.409 71.0248C432.526 70.4114 432.584 69.8537 432.584 69.3518C432.584 68.85 432.526 68.3063 432.409 67.7207C432.315 67.1073 432.116 66.5497 431.812 66.0478C431.531 65.5459 431.133 65.1277 430.618 64.7931C430.103 64.4306 429.448 64.2494 428.652 64.2494H414.538C413.718 64.2494 413.051 64.4306 412.536 64.7931C412.045 65.1277 411.647 65.5459 411.342 66.0478C411.062 66.5497 410.863 67.1073 410.746 67.7207C410.652 68.3063 410.605 68.85 410.605 69.3518C410.605 69.8537 410.652 70.4114 410.746 71.0248C410.863 71.6103 411.062 72.154 411.342 72.6559C411.647 73.1577 412.045 73.5899 412.536 73.9524C413.051 74.287 413.718 74.4543 414.538 74.4543H428.652ZM435.885 69.3518C435.885 70.4114 435.733 71.4848 435.428 72.5722C435.148 73.6317 434.726 74.6076 434.164 75.4998C433.603 76.3642 432.924 77.0752 432.128 77.6328C431.332 78.1905 430.431 78.4693 429.424 78.4693H413.414C412.454 78.4693 411.6 78.1905 410.851 77.6328C410.102 77.0752 409.458 76.3642 408.92 75.4998C408.405 74.6076 408.007 73.6178 407.726 72.5304C407.445 71.443 407.305 70.3835 407.305 69.3518C407.305 68.2923 407.445 67.2328 407.726 66.1733C408.03 65.0859 408.463 64.11 409.025 63.2456C409.587 62.3534 410.266 61.6285 411.062 61.0708C411.857 60.5132 412.759 60.2344 413.765 60.2344H429.776C430.735 60.2901 431.59 60.6108 432.339 61.1963C433.088 61.754 433.72 62.4649 434.235 63.3293C434.773 64.1936 435.183 65.1556 435.464 66.2151C435.744 67.2746 435.885 68.3202 435.885 69.3518Z" fill="white"/>
<path d="M465.169 74.4543C465.637 74.4543 466.035 74.6494 466.363 75.0398C466.691 75.4301 466.855 75.9041 466.855 76.4618C466.855 77.0194 466.691 77.4934 466.363 77.8838C466.035 78.2741 465.637 78.4693 465.169 78.4693H441.083C440.615 78.4693 440.217 78.2741 439.89 77.8838C439.562 77.4934 439.398 77.0194 439.398 76.4618V72.4468C439.398 71.7497 439.503 71.0945 439.714 70.4811C439.925 69.8398 440.217 69.2961 440.592 68.85C440.99 68.376 441.435 68.0135 441.926 67.7626C442.441 67.4837 443.003 67.3443 443.611 67.3443H462.255C462.606 67.3443 462.911 67.2049 463.168 66.9261C463.449 66.6194 463.589 66.243 463.589 65.7969C463.589 65.3786 463.449 65.0162 463.168 64.7095C462.911 64.4028 462.606 64.2494 462.255 64.2494H441.083C440.615 64.2494 440.217 64.0542 439.89 63.6639C439.562 63.2735 439.398 62.7995 439.398 62.2419C439.398 61.6842 439.562 61.2102 439.89 60.8199C440.217 60.4295 440.615 60.2344 441.083 60.2344H462.115C462.77 60.2344 463.379 60.3877 463.94 60.6944C464.526 60.9733 465.029 61.3636 465.45 61.8655C465.895 62.3674 466.234 62.9529 466.468 63.6221C466.726 64.2912 466.855 65.0162 466.855 65.7969C466.855 66.5776 466.726 67.3025 466.468 67.9717C466.234 68.6408 465.895 69.2264 465.45 69.7282C465.029 70.2301 464.526 70.6344 463.94 70.9411C463.379 71.2199 462.77 71.3593 462.115 71.3593H443.822C443.518 71.4151 443.26 71.5824 443.05 71.8612C442.839 72.14 442.734 72.4886 442.734 72.9068V74.4543H465.169Z" fill="white"/>
<path d="M474.363 69.3518C474.363 68.7942 474.526 68.3202 474.854 67.9298C475.182 67.5395 475.58 67.3443 476.048 67.3443H493.498C493.849 67.3443 494.153 67.191 494.411 66.8843C494.668 66.5776 494.797 66.2012 494.797 65.755C494.797 65.3368 494.668 64.9883 494.411 64.7095C494.153 64.4028 493.849 64.2494 493.498 64.2494H472.045C471.577 64.2494 471.179 64.0542 470.851 63.6639C470.524 63.2735 470.36 62.7995 470.36 62.2419C470.36 61.6842 470.524 61.2102 470.851 60.8199C471.179 60.4295 471.577 60.2344 472.045 60.2344H493.322C493.978 60.2344 494.586 60.3738 495.148 60.6526C495.733 60.9314 496.237 61.3218 496.658 61.8237C497.079 62.3255 497.407 62.9111 497.641 63.5802C497.898 64.2494 498.027 64.9743 498.027 65.755C498.027 66.4521 497.922 67.1073 497.711 67.7207C497.524 68.3341 497.255 68.8778 496.904 69.3518C497.653 70.4114 498.027 71.6103 498.027 72.9486C498.027 73.7293 497.898 74.4543 497.641 75.1234C497.407 75.7926 497.079 76.3781 496.658 76.88C496.237 77.3819 495.733 77.7722 495.148 78.0511C494.586 78.3299 493.978 78.4693 493.322 78.4693H472.045C471.577 78.4693 471.179 78.2741 470.851 77.8838C470.524 77.4934 470.36 77.0194 470.36 76.4618C470.36 75.9041 470.524 75.4301 470.851 75.0398C471.179 74.6494 471.577 74.4543 472.045 74.4543H493.498C493.849 74.4543 494.153 74.3149 494.411 74.036C494.668 73.7293 494.797 73.3669 494.797 72.9486C494.797 72.5025 494.668 72.1261 494.411 71.8194C494.153 71.5127 493.849 71.3593 493.498 71.3593H476.048C475.58 71.3593 475.182 71.1642 474.854 70.7738C474.526 70.3835 474.363 69.9095 474.363 69.3518Z" fill="white"/>
</svg>
