<svg width="404" height="141" viewBox="0 0 404 141" fill="none" xmlns="http://www.w3.org/2000/svg">
<path fill-rule="evenodd" clip-rule="evenodd" d="M349.394 21.0472C333.874 22.0755 314.832 27.9292 295.965 38.3854C277.098 48.8417 262.019 61.8978 252.885 74.5337C243.725 87.204 240.644 99.2927 245.4 107.936C250.155 116.58 261.99 120.402 277.553 119.371C293.073 118.343 312.115 112.489 330.982 102.033C349.849 91.5766 364.928 78.5205 374.062 65.8846C383.222 53.2143 386.303 41.1255 381.547 32.482C376.792 23.8384 364.957 20.0161 349.394 21.0472ZM381.97 32.2479C372.171 14.4381 333.562 16.9961 295.732 37.9616C257.903 58.927 235.179 90.3605 244.977 108.17C254.776 125.98 293.386 123.422 331.215 102.457C369.044 81.4913 391.768 50.0578 381.97 32.2479Z" fill="#F8F8F8" fill-opacity="0.63"/>
<path d="M312.617 32.6835C312.617 35.6499 310.221 38.0546 307.265 38.0546C304.31 38.0546 301.914 35.6499 301.914 32.6835C301.914 29.7172 304.31 27.3125 307.265 27.3125C310.221 27.3125 312.617 29.7172 312.617 32.6835Z" fill="#F8F8F8"/>
<path d="M297.785 116.413C297.785 117.7 296.745 118.743 295.463 118.743C294.18 118.743 293.141 117.7 293.141 116.413C293.141 115.125 294.18 114.082 295.463 114.082C296.745 114.082 297.785 115.125 297.785 116.413Z" fill="#F8F8F8"/>
<path d="M18.9328 63.7425C18.9328 62.9032 19.2234 62.1931 19.8044 61.612C20.3855 61.0309 21.0957 60.7404 21.935 60.7404C22.7743 60.7404 23.4845 61.0309 24.0655 61.612C24.6466 62.1931 24.9371 62.9032 24.9371 63.7425C24.9371 64.5819 24.6466 65.292 24.0655 65.8731C23.4845 66.4542 22.7743 66.7447 21.935 66.7447C21.0957 66.7447 20.3855 66.4542 19.8044 65.8731C19.2234 65.292 18.9328 64.5819 18.9328 63.7425ZM21.935 53.3803C23.1939 53.3803 24.3076 53.3319 25.2761 53.2351C26.2445 53.1059 27.2775 52.7831 28.3751 52.2666C29.4726 51.7501 30.7154 50.9754 32.1035 49.9424C33.5239 48.9094 35.2832 47.4729 37.3815 45.6329C37.9303 45.1809 38.479 44.955 39.0278 44.955C39.6734 44.955 40.2222 45.1809 40.6741 45.6329C41.1261 46.0848 41.3521 46.6336 41.3521 47.2792C41.3521 47.6343 41.2552 47.9732 41.0615 48.2961C40.9001 48.6189 40.6903 48.8933 40.432 49.1192C38.3983 50.927 36.5745 52.428 34.9604 53.6224C33.3786 54.7846 31.8776 55.7207 30.4572 56.4309C29.0368 57.1088 27.6487 57.593 26.2929 57.8835C24.9371 58.1741 23.4845 58.3193 21.935 58.3193C20.2887 58.3193 18.7714 58.1902 17.3834 57.932C16.0276 57.6414 14.6556 57.1411 13.2675 56.4309C11.8794 55.7207 10.3945 54.7846 8.81273 53.6224C7.23096 52.428 5.40708 50.927 3.34109 49.1192C3.08284 48.8933 2.85687 48.6189 2.66319 48.2961C2.50178 47.9732 2.42108 47.6343 2.42108 47.2792C2.42108 46.6336 2.64705 46.0848 3.09898 45.6329C3.55092 45.1809 4.0997 44.955 4.74532 44.955C5.06813 44.955 5.35866 45.0195 5.61691 45.1487C5.87515 45.2778 6.1334 45.4392 6.39165 45.6329C8.45764 47.4406 10.1847 48.861 11.5728 49.894C12.9931 50.927 14.2521 51.7017 15.3496 52.2182C16.4795 52.7347 17.5448 53.0575 18.5455 53.1866C19.5462 53.3158 20.676 53.3803 21.935 53.3803ZM74.4679 61.4183C75.5654 61.4183 76.4693 61.2246 77.1795 60.8373C77.8897 60.4176 78.4385 59.9172 78.8258 59.3362C79.2455 58.7551 79.5199 58.1256 79.649 57.4477C79.8104 56.7376 79.8911 56.0919 79.8911 55.5109C79.8911 54.9298 79.8104 54.3003 79.649 53.6224C79.5199 52.9122 79.2455 52.2666 78.8258 51.6856C78.4385 51.1045 77.8897 50.6203 77.1795 50.2329C76.4693 49.8133 75.5654 49.6034 74.4679 49.6034H54.9056C53.7757 49.6034 52.8557 49.8133 52.1455 50.2329C51.4676 50.6203 50.9188 51.1045 50.4992 51.6856C50.1118 52.2666 49.8374 52.9122 49.676 53.6224C49.5469 54.3003 49.4823 54.9298 49.4823 55.5109C49.4823 56.0919 49.5469 56.7376 49.676 57.4477C49.8374 58.1256 50.1118 58.7551 50.4992 59.3362C50.9188 59.9172 51.4676 60.4176 52.1455 60.8373C52.8557 61.2246 53.7757 61.4183 54.9056 61.4183H74.4679ZM84.3943 55.5109C84.3943 56.7376 84.1845 57.9804 83.7648 59.2393C83.3775 60.466 82.7964 61.5959 82.0217 62.6289C81.2469 63.6296 80.3108 64.4527 79.2132 65.0984C78.1157 65.744 76.8728 66.0668 75.4847 66.0668H53.4045C52.081 66.0022 50.9027 65.6471 49.8697 65.0015C48.8367 64.3236 47.949 63.4843 47.2065 62.4836C46.4963 61.4829 45.9476 60.3692 45.5602 59.1425C45.1728 57.9158 44.9791 56.7053 44.9791 55.5109C44.9791 54.2842 45.1728 53.0575 45.5602 51.8308C45.9798 50.5719 46.577 49.442 47.3518 48.4413C48.1265 47.4083 49.0627 46.569 50.1602 45.9234C51.2578 45.2778 52.5006 44.955 53.8887 44.955H75.969C77.2925 45.0195 78.4707 45.3908 79.5037 46.0687C80.5367 46.7143 81.4083 47.5375 82.1185 48.5382C82.861 49.5389 83.4259 50.6526 83.8133 51.8793C84.2006 53.1059 84.3943 54.3165 84.3943 55.5109ZM93.888 55.5109C93.888 56.0919 93.9525 56.7376 94.0817 57.4477C94.2431 58.1256 94.5175 58.7551 94.9048 59.3362C95.3245 59.9172 95.8733 60.4176 96.5512 60.8373C97.2613 61.2246 98.1814 61.4183 99.3112 61.4183H118.583C119.681 61.4183 120.584 61.2246 121.295 60.8373C122.005 60.4176 122.554 59.9172 122.941 59.3362C123.361 58.7551 123.635 58.1256 123.764 57.4477C123.926 56.7376 124.006 56.0919 124.006 55.5109V47.3276C124.006 46.682 124.232 46.1332 124.684 45.6813C125.136 45.2294 125.685 45.0034 126.33 45.0034C126.976 45.0034 127.525 45.2294 127.977 45.6813C128.429 46.1332 128.655 46.682 128.655 47.3276V55.5109C128.655 56.7376 128.445 57.9804 128.025 59.2393C127.638 60.466 127.057 61.5959 126.282 62.6289C125.507 63.6296 124.571 64.4527 123.474 65.0984C122.376 65.744 121.133 66.0668 119.745 66.0668H97.6649C96.3413 66.0022 95.1631 65.6471 94.1301 65.0015C93.0971 64.3236 92.2094 63.4843 91.4669 62.4836C90.7567 61.4829 90.2079 60.3692 89.8206 59.1425C89.4332 57.9158 89.2395 56.7053 89.2395 55.5109V47.3276C89.2395 46.682 89.4655 46.1332 89.9174 45.6813C90.3693 45.2294 90.9181 45.0034 91.5637 45.0034C92.2094 45.0034 92.7581 45.2294 93.2101 45.6813C93.662 46.1332 93.888 46.682 93.888 47.3276V55.5109ZM169.138 44.955C169.784 44.955 170.333 45.1809 170.785 45.6329C171.236 46.0848 171.462 46.6336 171.462 47.2792C171.462 47.9248 171.236 48.4736 170.785 48.9255C170.333 49.3775 169.784 49.6034 169.138 49.6034H154.805V63.7425C154.805 64.3882 154.579 64.9369 154.127 65.3889C153.676 65.8408 153.127 66.0668 152.481 66.0668C151.836 66.0668 151.287 65.8408 150.835 65.3889C150.383 64.9369 150.157 64.3882 150.157 63.7425V49.6034H135.63C135.049 49.5389 134.549 49.2968 134.129 48.8771C133.71 48.4252 133.5 47.8925 133.5 47.2792C133.5 46.6336 133.726 46.0848 134.178 45.6329C134.63 45.1809 135.178 44.955 135.824 44.955H169.138ZM214.208 63.7425C214.208 64.3882 213.983 64.9369 213.531 65.3889C213.079 65.8408 212.53 66.0668 211.884 66.0668C211.239 66.0668 210.69 65.8408 210.238 65.3889C209.786 64.9369 209.56 64.3882 209.56 63.7425V57.8351H180.943V63.7425C180.943 64.3882 180.717 64.9369 180.265 65.3889C179.813 65.8408 179.264 66.0668 178.619 66.0668C177.973 66.0668 177.424 65.8408 176.972 65.3889C176.52 64.9369 176.294 64.3882 176.294 63.7425V47.2792C176.294 46.6336 176.52 46.0848 176.972 45.6329C177.424 45.1809 177.973 44.955 178.619 44.955C179.264 44.955 179.813 45.1809 180.265 45.6329C180.717 46.0848 180.943 46.6336 180.943 47.2792V53.1866H209.56V47.2792C209.56 46.6336 209.786 46.0848 210.238 45.6329C210.69 45.1809 211.239 44.955 211.884 44.955C212.53 44.955 213.079 45.1809 213.531 45.6329C213.983 46.0848 214.208 46.6336 214.208 47.2792V63.7425ZM248.53 61.4183C249.628 61.4183 250.532 61.2246 251.242 60.8373C251.952 60.4176 252.501 59.9172 252.888 59.3362C253.308 58.7551 253.582 58.1256 253.711 57.4477C253.873 56.7376 253.954 56.0919 253.954 55.5109C253.954 54.9298 253.873 54.3003 253.711 53.6224C253.582 52.9122 253.308 52.2666 252.888 51.6856C252.501 51.1045 251.952 50.6203 251.242 50.2329C250.532 49.8133 249.628 49.6034 248.53 49.6034H228.968C227.838 49.6034 226.918 49.8133 226.208 50.2329C225.53 50.6203 224.981 51.1045 224.562 51.6856C224.174 52.2666 223.9 52.9122 223.738 53.6224C223.609 54.3003 223.545 54.9298 223.545 55.5109C223.545 56.0919 223.609 56.7376 223.738 57.4477C223.9 58.1256 224.174 58.7551 224.562 59.3362C224.981 59.9172 225.53 60.4176 226.208 60.8373C226.918 61.2246 227.838 61.4183 228.968 61.4183H248.53ZM258.457 55.5109C258.457 56.7376 258.247 57.9804 257.827 59.2393C257.44 60.466 256.859 61.5959 256.084 62.6289C255.309 63.6296 254.373 64.4527 253.276 65.0984C252.178 65.744 250.935 66.0668 249.547 66.0668H227.467C226.143 66.0022 224.965 65.6471 223.932 65.0015C222.899 64.3236 222.011 63.4843 221.269 62.4836C220.559 61.4829 220.01 60.3692 219.623 59.1425C219.235 57.9158 219.042 56.7053 219.042 55.5109C219.042 54.2842 219.235 53.0575 219.623 51.8308C220.042 50.5719 220.639 49.442 221.414 48.4413C222.189 47.4083 223.125 46.569 224.223 45.9234C225.32 45.2778 226.563 44.955 227.951 44.955H250.031C251.355 45.0195 252.533 45.3908 253.566 46.0687C254.599 46.7143 255.471 47.5375 256.181 48.5382C256.923 49.5389 257.488 50.6526 257.876 51.8793C258.263 53.1059 258.457 54.3165 258.457 55.5109ZM263.302 47.2792C263.302 46.6336 263.528 46.0848 263.98 45.6329C264.432 45.1809 264.981 44.955 265.626 44.955H294.631C295.535 44.955 296.374 45.1325 297.149 45.4876C297.956 45.8104 298.65 46.2623 299.231 46.8434C299.844 47.4245 300.312 48.1024 300.635 48.8771C300.99 49.6519 301.168 50.4912 301.168 51.395C301.168 52.2989 300.99 53.1382 300.635 53.913C300.312 54.6877 299.844 55.3656 299.231 55.9467C298.65 56.5277 297.956 56.9958 297.149 57.3509C296.374 57.6737 295.535 57.8351 294.631 57.8351H269.451C269.032 57.8997 268.677 58.0934 268.386 58.4162C268.096 58.739 267.95 59.1425 267.95 59.6267V63.7425C267.95 64.3882 267.708 64.9369 267.224 65.3889C266.772 65.8408 266.24 66.0668 265.626 66.0668C264.981 66.0668 264.432 65.8408 263.98 65.3889C263.528 64.9369 263.302 64.3882 263.302 63.7425V59.0941C263.302 58.287 263.447 57.5284 263.738 56.8183C264.028 56.0758 264.432 55.4463 264.948 54.9298C265.497 54.381 266.11 53.9614 266.788 53.6709C267.498 53.348 268.273 53.1866 269.113 53.1866H294.824C295.309 53.1866 295.728 53.0252 296.083 52.7024C296.471 52.3473 296.664 51.9115 296.664 51.395C296.664 50.9108 296.471 50.4912 296.083 50.1361C295.728 49.781 295.309 49.6034 294.824 49.6034H265.626C264.981 49.6034 264.432 49.3775 263.98 48.9255C263.528 48.4736 263.302 47.9248 263.302 47.2792ZM310.65 63.7425C310.65 64.3882 310.424 64.9369 309.972 65.3889C309.52 65.8408 308.972 66.0668 308.326 66.0668C307.68 66.0668 307.132 65.8408 306.68 65.3889C306.228 64.9369 306.002 64.3882 306.002 63.7425V47.2792C306.002 46.6336 306.228 46.0848 306.68 45.6329C307.132 45.1809 307.68 44.955 308.326 44.955C308.972 44.955 309.52 45.1809 309.972 45.6329C310.424 46.0848 310.65 46.6336 310.65 47.2792V63.7425ZM319.622 65.1952C319.138 65.7763 318.541 66.0668 317.831 66.0668C317.185 66.0668 316.636 65.8408 316.184 65.3889C315.732 64.9369 315.506 64.3882 315.506 63.7425C315.506 63.1615 315.668 62.6934 315.991 62.3383L327.757 46.5045C328.306 45.762 329.032 45.1648 329.936 44.7129C330.84 44.2286 331.808 43.9865 332.841 43.9865C333.81 43.9865 334.73 44.1964 335.601 44.616C336.473 45.0357 337.183 45.6167 337.732 46.3592L349.498 62.0962C349.692 62.3222 349.854 62.5804 349.983 62.871C350.112 63.1292 350.176 63.4197 350.176 63.7425C350.176 64.3882 349.95 64.9369 349.498 65.3889C349.047 65.8408 348.498 66.0668 347.852 66.0668C347.077 66.0668 346.464 65.7601 346.012 65.1468L334.73 50.0877C334.504 49.8294 334.213 49.555 333.858 49.2645C333.535 48.9417 333.196 48.7803 332.841 48.7803C332.486 48.7803 332.131 48.9417 331.776 49.2645C331.453 49.555 331.195 49.8294 331.001 50.0877L319.622 65.1952Z" fill="white"/>
<path d="M280.592 84.1392C280.918 84.1392 281.195 84.2812 281.423 84.5652C281.651 84.8492 281.766 85.1941 281.766 85.5998C281.766 86.0056 281.651 86.3505 281.423 86.6345C281.195 86.9185 280.918 87.0605 280.592 87.0605H263.815C263.488 87.0605 263.211 86.9185 262.983 86.6345C262.755 86.3505 262.641 86.0056 262.641 85.5998V82.6786C262.641 82.1714 262.714 81.6946 262.861 81.2483C263.007 80.7817 263.211 80.3862 263.472 80.0616C263.749 79.7167 264.059 79.453 264.401 79.2704C264.76 79.0675 265.151 78.9661 265.575 78.9661H278.562C278.806 78.9661 279.018 78.8647 279.198 78.6618C279.393 78.4386 279.491 78.1648 279.491 77.8402C279.491 77.5359 279.393 77.2721 279.198 77.049C279.018 76.8258 278.806 76.7143 278.562 76.7143H263.815C263.488 76.7143 263.211 76.5723 262.983 76.2882C262.755 76.0042 262.641 75.6593 262.641 75.2536C262.641 74.8479 262.755 74.503 262.983 74.219C263.211 73.935 263.488 73.793 263.815 73.793H278.464C278.92 73.793 279.344 73.9045 279.736 74.1277C280.143 74.3306 280.494 74.6146 280.787 74.9797C281.097 75.3449 281.333 75.7709 281.497 76.2578C281.676 76.7447 281.766 77.2721 281.766 77.8402C281.766 78.4082 281.676 78.9357 281.497 79.4225C281.333 79.9094 281.097 80.3354 280.787 80.7006C280.494 81.0658 280.143 81.3599 279.736 81.5831C279.344 81.7859 278.92 81.8874 278.464 81.8874H265.722C265.51 81.9279 265.331 82.0497 265.184 82.2525C265.037 82.4554 264.964 82.709 264.964 83.0133V84.1392H280.592Z" fill="white"/>
<path d="M298.456 84.1392C299.01 84.1392 299.467 84.0175 299.825 83.774C300.184 83.5103 300.461 83.1959 300.657 82.8307C300.869 82.4655 301.007 82.07 301.073 81.6439C301.154 81.1976 301.195 80.7919 301.195 80.4267C301.195 80.0616 301.154 79.666 301.073 79.24C301.007 78.7936 300.869 78.3879 300.657 78.0228C300.461 77.6576 300.184 77.3533 299.825 77.1098C299.467 76.8461 299.01 76.7143 298.456 76.7143H288.624C288.054 76.7143 287.589 76.8461 287.23 77.1098C286.888 77.3533 286.611 77.6576 286.399 78.0228C286.203 78.3879 286.064 78.7936 285.983 79.24C285.918 79.666 285.885 80.0616 285.885 80.4267C285.885 80.7919 285.918 81.1976 285.983 81.6439C286.064 82.07 286.203 82.4655 286.399 82.8307C286.611 83.1959 286.888 83.5103 287.23 83.774C287.589 84.0175 288.054 84.1392 288.624 84.1392H298.456ZM303.494 80.4267C303.494 81.1976 303.388 81.9787 303.176 82.7698C302.98 83.5407 302.687 84.2508 302.295 84.9C301.904 85.5288 301.431 86.0462 300.877 86.4519C300.323 86.8576 299.695 87.0605 298.994 87.0605H287.842C287.173 87.0605 286.578 86.8576 286.056 86.4519C285.535 86.0462 285.086 85.5288 284.711 84.9C284.353 84.2508 284.075 83.5306 283.88 82.7394C283.684 81.9482 283.586 81.1773 283.586 80.4267C283.586 79.6558 283.684 78.8849 283.88 78.114C284.092 77.3229 284.393 76.6128 284.785 75.9839C285.176 75.3348 285.649 74.8073 286.203 74.4016C286.757 73.9958 287.385 73.793 288.086 73.793H299.238C299.907 73.8335 300.502 74.0668 301.024 74.4929C301.545 74.8986 301.986 75.4159 302.344 76.0448C302.719 76.6737 303.005 77.3736 303.2 78.1445C303.396 78.9154 303.494 79.6761 303.494 80.4267Z" fill="white"/>
<path d="M323.892 84.1392C324.218 84.1392 324.495 84.2812 324.723 84.5652C324.952 84.8492 325.066 85.1941 325.066 85.5998C325.066 86.0056 324.952 86.3505 324.723 86.6345C324.495 86.9185 324.218 87.0605 323.892 87.0605H307.115C306.789 87.0605 306.512 86.9185 306.283 86.6345C306.055 86.3505 305.941 86.0056 305.941 85.5998V82.6786C305.941 82.1714 306.014 81.6946 306.161 81.2483C306.308 80.7817 306.512 80.3862 306.772 80.0616C307.05 79.7167 307.359 79.453 307.702 79.2704C308.06 79.0675 308.452 78.9661 308.876 78.9661H321.862C322.107 78.9661 322.319 78.8647 322.498 78.6618C322.694 78.4386 322.791 78.1648 322.791 77.8402C322.791 77.5359 322.694 77.2721 322.498 77.049C322.319 76.8258 322.107 76.7143 321.862 76.7143H307.115C306.789 76.7143 306.512 76.5723 306.283 76.2882C306.055 76.0042 305.941 75.6593 305.941 75.2536C305.941 74.8479 306.055 74.503 306.283 74.219C306.512 73.935 306.789 73.793 307.115 73.793H321.764C322.221 73.793 322.645 73.9045 323.036 74.1277C323.444 74.3306 323.794 74.6146 324.088 74.9797C324.397 75.3449 324.634 75.7709 324.797 76.2578C324.976 76.7447 325.066 77.2721 325.066 77.8402C325.066 78.4082 324.976 78.9357 324.797 79.4225C324.634 79.9094 324.397 80.3354 324.088 80.7006C323.794 81.0658 323.444 81.3599 323.036 81.5831C322.645 81.7859 322.221 81.8874 321.764 81.8874H309.022C308.81 81.9279 308.631 82.0497 308.484 82.2525C308.338 82.4554 308.264 82.709 308.264 83.0133V84.1392H323.892Z" fill="white"/>
<path d="M330.296 80.4267C330.296 80.021 330.41 79.6761 330.638 79.3921C330.866 79.1081 331.143 78.9661 331.469 78.9661H343.624C343.869 78.9661 344.081 78.8545 344.26 78.6314C344.439 78.4082 344.529 78.1343 344.529 77.8097C344.529 77.5054 344.439 77.2519 344.26 77.049C344.081 76.8258 343.869 76.7143 343.624 76.7143H328.681C328.355 76.7143 328.078 76.5723 327.85 76.2882C327.622 76.0042 327.507 75.6593 327.507 75.2536C327.507 74.8479 327.622 74.503 327.85 74.219C328.078 73.935 328.355 73.793 328.681 73.793H343.502C343.958 73.793 344.382 73.8944 344.774 74.0973C345.181 74.3001 345.532 74.5842 345.825 74.9493C346.119 75.3145 346.347 75.7405 346.51 76.2274C346.689 76.7143 346.779 77.2417 346.779 77.8097C346.779 78.3169 346.706 78.7936 346.559 79.24C346.429 79.6863 346.241 80.0819 345.997 80.4267C346.518 81.1976 346.779 82.07 346.779 83.0437C346.779 83.6117 346.689 84.1392 346.51 84.6261C346.347 85.113 346.119 85.539 345.825 85.9041C345.532 86.2693 345.181 86.5533 344.774 86.7562C344.382 86.9591 343.958 87.0605 343.502 87.0605H328.681C328.355 87.0605 328.078 86.9185 327.85 86.6345C327.622 86.3505 327.507 86.0056 327.507 85.5998C327.507 85.1941 327.622 84.8492 327.85 84.5652C328.078 84.2812 328.355 84.1392 328.681 84.1392H343.624C343.869 84.1392 344.081 84.0378 344.26 83.8349C344.439 83.6117 344.529 83.348 344.529 83.0437C344.529 82.7191 344.439 82.4453 344.26 82.2221C344.081 81.999 343.869 81.8874 343.624 81.8874H331.469C331.143 81.8874 330.866 81.7454 330.638 81.4614C330.41 81.1773 330.296 80.8325 330.296 80.4267Z" fill="white"/>
<path d="M80.8716 1.96484L81.4174 5.721C81.5677 6.75501 82.3793 7.56752 83.4132 7.71885L87.1495 8.26576L83.4132 8.81267C82.3793 8.96401 81.5677 9.77651 81.4174 10.8105L80.8716 14.5667L80.3258 10.8105C80.1756 9.77651 79.3639 8.96401 78.3301 8.81267L74.5938 8.26576L78.3301 7.71885C79.3639 7.56752 80.1756 6.75502 80.3258 5.721L80.8716 1.96484Z" fill="#F8F8F8"/>
</svg>
