<svg width="1094" height="200" viewBox="0 0 1094 200" fill="none" xmlns="http://www.w3.org/2000/svg">
<path d="M51.0812 90.4579C51.0812 88.1934 51.8651 86.2773 53.4328 84.7096C55.0005 83.1419 56.9166 82.3581 59.181 82.3581C61.4455 82.3581 63.3616 83.1419 64.9293 84.7096C66.497 86.2773 67.2809 88.1934 67.2809 90.4579C67.2809 92.7224 66.497 94.6384 64.9293 96.2062C63.3616 97.7739 61.4455 98.5577 59.181 98.5577C56.9166 98.5577 55.0005 97.7739 53.4328 96.2062C51.8651 94.6384 51.0812 92.7224 51.0812 90.4579ZM59.181 62.5004C62.5777 62.5004 65.5825 62.3698 68.1954 62.1085C70.8082 61.7601 73.5952 60.8891 76.5565 59.4956C79.5177 58.1021 82.8709 56.0118 86.6159 53.2248C90.4481 50.4378 95.1948 46.562 100.856 41.5976C102.337 40.3783 103.817 39.7686 105.298 39.7686C107.04 39.7686 108.52 40.3783 109.74 41.5976C110.959 42.8169 111.569 44.2976 111.569 46.0395C111.569 46.9975 111.307 47.912 110.785 48.7829C110.349 49.6539 109.783 50.3942 109.086 51.0039C103.599 55.8812 98.6786 59.9311 94.3239 63.1536C90.0562 66.289 86.0063 68.8148 82.1741 70.7309C78.3419 72.5599 74.5968 73.8663 70.9389 74.6502C67.2809 75.434 63.3616 75.8259 59.181 75.8259C54.7392 75.8259 50.6457 75.4776 46.9006 74.7808C43.2426 73.9969 39.5411 72.647 35.796 70.7309C32.0509 68.8148 28.0446 66.289 23.7769 63.1536C19.5093 59.9311 14.5884 55.8812 9.01433 51.0039C8.31757 50.3942 7.7079 49.6539 7.18533 48.7829C6.74986 47.912 6.53212 46.9975 6.53212 46.0395C6.53212 44.2976 7.14179 42.8169 8.36112 41.5976C9.58045 40.3783 11.0611 39.7686 12.803 39.7686C13.6739 39.7686 14.4578 39.9428 15.1545 40.2912C15.8513 40.6396 16.548 41.075 17.2448 41.5976C22.8189 46.4749 27.4785 50.3071 31.2235 53.0942C35.0557 55.8812 38.4524 57.9715 41.4137 59.365C44.462 60.7585 47.3361 61.6295 50.0361 61.9778C52.736 62.3262 55.7843 62.5004 59.181 62.5004ZM200.916 84.1871C203.877 84.1871 206.316 83.6645 208.232 82.6193C210.148 81.4871 211.629 80.1371 212.674 78.5694C213.806 77.0017 214.546 75.3034 214.895 73.4744C215.33 71.5583 215.548 69.8164 215.548 68.2487C215.548 66.681 215.33 64.9826 214.895 63.1536C214.546 61.2375 213.806 59.4956 212.674 57.9279C211.629 56.3602 210.148 55.0538 208.232 54.0086C206.316 52.8764 203.877 52.3103 200.916 52.3103H148.136C145.088 52.3103 142.606 52.8764 140.69 54.0086C138.861 55.0538 137.38 56.3602 136.248 57.9279C135.203 59.4956 134.462 61.2375 134.027 63.1536C133.679 64.9826 133.504 66.681 133.504 68.2487C133.504 69.8164 133.679 71.5583 134.027 73.4744C134.462 75.3034 135.203 77.0017 136.248 78.5694C137.38 80.1371 138.861 81.4871 140.69 82.6193C142.606 83.6645 145.088 84.1871 148.136 84.1871H200.916ZM227.698 68.2487C227.698 71.5583 227.131 74.9114 225.999 78.3081C224.954 81.6177 223.386 84.6661 221.296 87.4531C219.206 90.1531 216.68 92.374 213.719 94.1159C210.758 95.8578 207.404 96.7287 203.659 96.7287H144.086C140.515 96.5545 137.337 95.5965 134.549 93.8546C131.762 92.0256 129.367 89.7611 127.364 87.0612C125.448 84.3612 123.967 81.3565 122.922 78.0469C121.877 74.7372 121.355 71.4712 121.355 68.2487C121.355 64.9391 121.877 61.6295 122.922 58.3198C124.055 54.9231 125.666 51.8748 127.756 49.1749C129.846 46.3878 132.372 44.1234 135.333 42.3815C138.295 40.6396 141.648 39.7686 145.393 39.7686H204.966C208.537 39.9428 211.716 40.9444 214.503 42.7734C217.29 44.5153 219.641 46.7362 221.557 49.4362C223.561 52.1361 225.085 55.1409 226.13 58.4505C227.175 61.7601 227.698 65.0262 227.698 68.2487ZM253.312 68.2487C253.312 69.8164 253.486 71.5583 253.834 73.4744C254.27 75.3034 255.01 77.0017 256.055 78.5694C257.187 80.1371 258.668 81.4871 260.497 82.6193C262.413 83.6645 264.895 84.1871 267.944 84.1871H319.939C322.901 84.1871 325.339 83.6645 327.255 82.6193C329.171 81.4871 330.652 80.1371 331.697 78.5694C332.829 77.0017 333.57 75.3034 333.918 73.4744C334.354 71.5583 334.571 69.8164 334.571 68.2487V46.1701C334.571 44.4282 335.181 42.9476 336.4 41.7283C337.62 40.5089 339.1 39.8993 340.842 39.8993C342.584 39.8993 344.065 40.5089 345.284 41.7283C346.503 42.9476 347.113 44.4282 347.113 46.1701V68.2487C347.113 71.5583 346.547 74.9114 345.415 78.3081C344.37 81.6177 342.802 84.6661 340.712 87.4531C338.621 90.1531 336.095 92.374 333.134 94.1159C330.173 95.8578 326.82 96.7287 323.075 96.7287H263.502C259.931 96.5545 256.752 95.5965 253.965 93.8546C251.178 92.0256 248.783 89.7611 246.78 87.0612C244.864 84.3612 243.383 81.3565 242.338 78.0469C241.293 74.7372 240.77 71.4712 240.77 68.2487V46.1701C240.77 44.4282 241.38 42.9476 242.599 41.7283C243.818 40.5089 245.299 39.8993 247.041 39.8993C248.783 39.8993 250.263 40.5089 251.483 41.7283C252.702 42.9476 253.312 44.4282 253.312 46.1701V68.2487ZM456.338 39.7686C458.08 39.7686 459.561 40.3783 460.78 41.5976C461.999 42.8169 462.609 44.2976 462.609 46.0395C462.609 47.7814 461.999 49.262 460.78 50.4813C459.561 51.7006 458.08 52.3103 456.338 52.3103H417.668V90.4579C417.668 92.1998 417.058 93.6804 415.839 94.8997C414.62 96.1191 413.139 96.7287 411.397 96.7287C409.655 96.7287 408.175 96.1191 406.955 94.8997C405.736 93.6804 405.126 92.1998 405.126 90.4579V52.3103H365.934C364.366 52.1361 363.016 51.4829 361.884 50.3507C360.751 49.1313 360.185 47.6943 360.185 46.0395C360.185 44.2976 360.795 42.8169 362.014 41.5976C363.234 40.3783 364.714 39.7686 366.456 39.7686H456.338ZM577.939 90.4579C577.939 92.1998 577.329 93.6804 576.11 94.8997C574.891 96.1191 573.41 96.7287 571.668 96.7287C569.926 96.7287 568.446 96.1191 567.226 94.8997C566.007 93.6804 565.397 92.1998 565.397 90.4579V74.5195H488.188V90.4579C488.188 92.1998 487.578 93.6804 486.359 94.8997C485.139 96.1191 483.659 96.7287 481.917 96.7287C480.175 96.7287 478.694 96.1191 477.475 94.8997C476.255 93.6804 475.646 92.1998 475.646 90.4579V46.0395C475.646 44.2976 476.255 42.8169 477.475 41.5976C478.694 40.3783 480.175 39.7686 481.917 39.7686C483.659 39.7686 485.139 40.3783 486.359 41.5976C487.578 42.8169 488.188 44.2976 488.188 46.0395V61.9778H565.397V46.0395C565.397 44.2976 566.007 42.8169 567.226 41.5976C568.446 40.3783 569.926 39.7686 571.668 39.7686C573.41 39.7686 574.891 40.3783 576.11 41.5976C577.329 42.8169 577.939 44.2976 577.939 46.0395V90.4579ZM670.54 84.1871C673.501 84.1871 675.94 83.6645 677.856 82.6193C679.772 81.4871 681.253 80.1371 682.298 78.5694C683.43 77.0017 684.17 75.3034 684.519 73.4744C684.954 71.5583 685.172 69.8164 685.172 68.2487C685.172 66.681 684.954 64.9826 684.519 63.1536C684.17 61.2375 683.43 59.4956 682.298 57.9279C681.253 56.3602 679.772 55.0538 677.856 54.0086C675.94 52.8764 673.501 52.3103 670.54 52.3103H617.76C614.712 52.3103 612.23 52.8764 610.314 54.0086C608.485 55.0538 607.004 56.3602 605.872 57.9279C604.827 59.4956 604.086 61.2375 603.651 63.1536C603.303 64.9826 603.128 66.681 603.128 68.2487C603.128 69.8164 603.303 71.5583 603.651 73.4744C604.086 75.3034 604.827 77.0017 605.872 78.5694C607.004 80.1371 608.485 81.4871 610.314 82.6193C612.23 83.6645 614.712 84.1871 617.76 84.1871H670.54ZM697.322 68.2487C697.322 71.5583 696.755 74.9114 695.623 78.3081C694.578 81.6177 693.01 84.6661 690.92 87.4531C688.83 90.1531 686.304 92.374 683.343 94.1159C680.382 95.8578 677.028 96.7287 673.283 96.7287H613.71C610.139 96.5545 606.961 95.5965 604.173 93.8546C601.386 92.0256 598.991 89.7611 596.988 87.0612C595.072 84.3612 593.591 81.3565 592.546 78.0469C591.501 74.7372 590.979 71.4712 590.979 68.2487C590.979 64.9391 591.501 61.6295 592.546 58.3198C593.679 54.9231 595.29 51.8748 597.38 49.1749C599.47 46.3878 601.996 44.1234 604.957 42.3815C607.919 40.6396 611.272 39.7686 615.017 39.7686H674.59C678.161 39.9428 681.34 40.9444 684.127 42.7734C686.914 44.5153 689.265 46.7362 691.181 49.4362C693.185 52.1361 694.709 55.1409 695.754 58.4505C696.799 61.7601 697.322 65.0262 697.322 68.2487ZM710.394 46.0395C710.394 44.2976 711.003 42.8169 712.223 41.5976C713.442 40.3783 714.923 39.7686 716.665 39.7686H794.919C797.358 39.7686 799.623 40.2476 801.713 41.2057C803.89 42.0766 805.763 43.296 807.33 44.8637C808.985 46.4314 810.248 48.2604 811.119 50.3507C812.077 52.4409 812.556 54.7054 812.556 57.1441C812.556 59.5827 812.077 61.8472 811.119 63.9375C810.248 66.0278 808.985 67.8567 807.33 69.4245C805.763 70.9922 803.89 72.255 801.713 73.2131C799.623 74.084 797.358 74.5195 794.919 74.5195H726.985C725.853 74.6937 724.895 75.2163 724.111 76.0872C723.327 76.9582 722.935 78.0469 722.935 79.3533V90.4579C722.935 92.1998 722.282 93.6804 720.976 94.8997C719.756 96.1191 718.319 96.7287 716.665 96.7287C714.923 96.7287 713.442 96.1191 712.223 94.8997C711.003 93.6804 710.394 92.1998 710.394 90.4579V77.9162C710.394 75.7388 710.786 73.6921 711.57 71.776C712.353 69.7728 713.442 68.0745 714.836 66.681C716.316 65.2003 717.971 64.0681 719.8 63.2843C721.716 62.4133 723.806 61.9778 726.071 61.9778H795.442C796.748 61.9778 797.881 61.5424 798.839 60.6714C799.884 59.7134 800.406 58.5376 800.406 57.1441C800.406 55.8376 799.884 54.7054 798.839 53.7474C797.881 52.7893 796.748 52.3103 795.442 52.3103H716.665C714.923 52.3103 713.442 51.7006 712.223 50.4813C711.003 49.262 710.394 47.7814 710.394 46.0395ZM838.141 90.4579C838.141 92.1998 837.531 93.6804 836.312 94.8997C835.093 96.1191 833.612 96.7287 831.87 96.7287C830.128 96.7287 828.648 96.1191 827.428 94.8997C826.209 93.6804 825.599 92.1998 825.599 90.4579V46.0395C825.599 44.2976 826.209 42.8169 827.428 41.5976C828.648 40.3783 830.128 39.7686 831.87 39.7686C833.612 39.7686 835.093 40.3783 836.312 41.5976C837.531 42.8169 838.141 44.2976 838.141 46.0395V90.4579ZM862.348 94.3772C861.041 95.9449 859.43 96.7287 857.514 96.7287C855.772 96.7287 854.291 96.1191 853.072 94.8997C851.853 93.6804 851.243 92.1998 851.243 90.4579C851.243 88.8902 851.678 87.6273 852.549 86.6693L884.296 43.9492C885.776 41.946 887.736 40.3347 890.174 39.1154C892.613 37.809 895.226 37.1558 898.013 37.1558C900.626 37.1558 903.108 37.7219 905.46 38.8541C907.811 39.9864 909.727 41.5541 911.208 43.5573L942.954 86.016C943.477 86.6257 943.912 87.3225 944.26 88.1063C944.609 88.8031 944.783 89.5869 944.783 90.4579C944.783 92.1998 944.173 93.6804 942.954 94.8997C941.735 96.1191 940.254 96.7287 938.512 96.7287C936.422 96.7287 934.767 95.9013 933.548 94.2465L903.108 53.6167C902.498 52.92 901.715 52.1797 900.756 51.3958C899.886 50.5248 898.971 50.0894 898.013 50.0894C897.055 50.0894 896.097 50.5248 895.139 51.3958C894.268 52.1797 893.571 52.92 893.049 53.6167L862.348 94.3772Z" fill="white"/>
<path d="M759.829 144.713C760.712 144.713 761.462 145.096 762.08 145.863C762.698 146.629 763.008 147.559 763.008 148.654C763.008 149.749 762.698 150.679 762.08 151.445C761.462 152.212 760.712 152.595 759.829 152.595H714.398C713.515 152.595 712.764 152.212 712.146 151.445C711.528 150.679 711.219 149.749 711.219 148.654V140.772C711.219 139.404 711.417 138.118 711.815 136.914C712.212 135.655 712.764 134.587 713.47 133.712C714.221 132.781 715.06 132.07 715.987 131.577C716.958 131.03 718.018 130.756 719.166 130.756H754.332C754.994 130.756 755.568 130.482 756.054 129.935C756.584 129.333 756.849 128.594 756.849 127.718C756.849 126.897 756.584 126.186 756.054 125.584C755.568 124.982 754.994 124.681 754.332 124.681H714.398C713.515 124.681 712.764 124.297 712.146 123.531C711.528 122.765 711.219 121.834 711.219 120.74C711.219 119.645 711.528 118.715 712.146 117.948C712.764 117.182 713.515 116.799 714.398 116.799H754.067C755.303 116.799 756.451 117.1 757.511 117.702C758.615 118.249 759.564 119.016 760.358 120.001C761.197 120.986 761.838 122.135 762.279 123.449C762.765 124.763 763.008 126.186 763.008 127.718C763.008 129.251 762.765 130.674 762.279 131.988C761.838 133.301 761.197 134.451 760.358 135.436C759.564 136.421 758.615 137.215 757.511 137.817C756.451 138.364 755.303 138.638 754.067 138.638H719.563C718.989 138.747 718.504 139.076 718.106 139.623C717.709 140.17 717.51 140.854 717.51 141.675V144.713H759.829Z" fill="white"/>
<path d="M808.203 144.713C809.704 144.713 810.941 144.385 811.912 143.728C812.883 143.016 813.634 142.168 814.164 141.183C814.738 140.198 815.113 139.13 815.289 137.981C815.51 136.777 815.621 135.682 815.621 134.697C815.621 133.712 815.51 132.644 815.289 131.495C815.113 130.291 814.738 129.196 814.164 128.211C813.634 127.226 812.883 126.405 811.912 125.748C810.941 125.036 809.704 124.681 808.203 124.681H781.58C780.035 124.681 778.777 125.036 777.805 125.748C776.878 126.405 776.128 127.226 775.554 128.211C775.024 129.196 774.649 130.291 774.428 131.495C774.251 132.644 774.163 133.712 774.163 134.697C774.163 135.682 774.251 136.777 774.428 137.981C774.649 139.13 775.024 140.198 775.554 141.183C776.128 142.168 776.878 143.016 777.805 143.728C778.777 144.385 780.035 144.713 781.58 144.713H808.203ZM821.846 134.697C821.846 136.777 821.559 138.884 820.985 141.019C820.455 143.099 819.66 145.014 818.601 146.766C817.541 148.462 816.261 149.858 814.76 150.953C813.258 152.048 811.559 152.595 809.66 152.595H779.461C777.651 152.595 776.039 152.048 774.627 150.953C773.214 149.858 772 148.462 770.984 146.766C770.013 145.014 769.262 143.071 768.732 140.937C768.203 138.802 767.938 136.722 767.938 134.697C767.938 132.617 768.203 130.537 768.732 128.457C769.306 126.323 770.123 124.407 771.183 122.71C772.242 120.959 773.523 119.536 775.024 118.441C776.525 117.346 778.225 116.799 780.123 116.799H810.322C812.133 116.908 813.744 117.538 815.157 118.687C816.57 119.782 817.762 121.178 818.733 122.874C819.749 124.571 820.521 126.459 821.051 128.539C821.581 130.619 821.846 132.672 821.846 134.697Z" fill="white"/>
<path d="M877.082 144.713C877.965 144.713 878.716 145.096 879.334 145.863C879.952 146.629 880.261 147.559 880.261 148.654C880.261 149.749 879.952 150.679 879.334 151.445C878.716 152.212 877.965 152.595 877.082 152.595H831.651C830.768 152.595 830.018 152.212 829.4 151.445C828.782 150.679 828.473 149.749 828.473 148.654V140.772C828.473 139.404 828.671 138.118 829.069 136.914C829.466 135.655 830.018 134.587 830.724 133.712C831.475 132.781 832.314 132.07 833.241 131.577C834.212 131.03 835.272 130.756 836.42 130.756H871.586C872.248 130.756 872.822 130.482 873.308 129.935C873.837 129.333 874.102 128.594 874.102 127.718C874.102 126.897 873.837 126.186 873.308 125.584C872.822 124.982 872.248 124.681 871.586 124.681H831.651C830.768 124.681 830.018 124.297 829.4 123.531C828.782 122.765 828.473 121.834 828.473 120.74C828.473 119.645 828.782 118.715 829.4 117.948C830.018 117.182 830.768 116.799 831.651 116.799H871.321C872.557 116.799 873.705 117.1 874.765 117.702C875.868 118.249 876.818 119.016 877.612 120.001C878.451 120.986 879.091 122.135 879.533 123.449C880.018 124.763 880.261 126.186 880.261 127.718C880.261 129.251 880.018 130.674 879.533 131.988C879.091 133.301 878.451 134.451 877.612 135.436C876.818 136.421 875.868 137.215 874.765 137.817C873.705 138.364 872.557 138.638 871.321 138.638H836.817C836.243 138.747 835.757 139.076 835.36 139.623C834.963 140.17 834.764 140.854 834.764 141.675V144.713H877.082Z" fill="white"/>
<path d="M894.423 134.697C894.423 133.602 894.732 132.672 895.35 131.905C895.968 131.139 896.719 130.756 897.602 130.756H930.516C931.178 130.756 931.752 130.455 932.238 129.853C932.724 129.251 932.966 128.512 932.966 127.636C932.966 126.815 932.724 126.131 932.238 125.584C931.752 124.982 931.178 124.681 930.516 124.681H890.052C889.169 124.681 888.418 124.297 887.8 123.531C887.182 122.765 886.873 121.834 886.873 120.74C886.873 119.645 887.182 118.715 887.8 117.948C888.418 117.182 889.169 116.799 890.052 116.799H930.185C931.421 116.799 932.569 117.072 933.629 117.62C934.732 118.167 935.682 118.933 936.476 119.919C937.271 120.904 937.889 122.053 938.331 123.367C938.816 124.681 939.059 126.104 939.059 127.636C939.059 129.005 938.861 130.291 938.463 131.495C938.11 132.699 937.602 133.766 936.94 134.697C938.353 136.777 939.059 139.13 939.059 141.758C939.059 143.29 938.816 144.713 938.331 146.027C937.889 147.34 937.271 148.49 936.476 149.475C935.682 150.46 934.732 151.227 933.629 151.774C932.569 152.321 931.421 152.595 930.185 152.595H890.052C889.169 152.595 888.418 152.212 887.8 151.445C887.182 150.679 886.873 149.749 886.873 148.654C886.873 147.559 887.182 146.629 887.8 145.863C888.418 145.096 889.169 144.713 890.052 144.713H930.516C931.178 144.713 931.752 144.439 932.238 143.892C932.724 143.29 932.966 142.579 932.966 141.758C932.966 140.882 932.724 140.143 932.238 139.541C931.752 138.939 931.178 138.638 930.516 138.638H897.602C896.719 138.638 895.968 138.255 895.35 137.488C894.732 136.722 894.423 135.792 894.423 134.697Z" fill="white"/>
</svg>
