<svg width="4187" height="1450" viewBox="0 0 4187 1450" fill="none" xmlns="http://www.w3.org/2000/svg">
<path fill-rule="evenodd" clip-rule="evenodd" d="M3621.03 217.329C3460.18 227.948 3262.84 288.393 3067.3 396.364C2871.77 504.334 2715.49 639.151 2620.82 769.629C2525.89 900.462 2493.96 1025.29 2543.25 1114.54C2592.53 1203.8 2715.19 1243.27 2876.48 1232.62C3037.33 1222 3234.67 1161.56 3430.21 1053.58C3625.74 945.614 3782.02 810.797 3876.69 680.319C3971.62 549.486 4003.55 424.658 3954.26 335.405C3904.98 246.151 3782.33 206.682 3621.03 217.329ZM3958.64 332.988C3857.09 149.084 3456.94 175.498 3064.89 391.986C2672.83 608.475 2437.32 933.057 2538.87 1116.96C2640.42 1300.86 3040.57 1274.45 3432.63 1057.96C3824.68 841.474 4060.19 516.892 3958.64 332.988Z" fill="#F8F8F8" fill-opacity="0.63"/>
<path d="M3239.92 337.461C3239.92 368.091 3215.09 392.922 3184.46 392.922C3153.83 392.922 3129 368.091 3129 337.461C3129 306.831 3153.83 282 3184.46 282C3215.09 282 3239.92 306.831 3239.92 337.461Z" fill="#F8F8F8"/>
<path d="M3086.13 1202.07C3086.13 1215.36 3075.36 1226.13 3062.07 1226.13C3048.77 1226.13 3038 1215.36 3038 1202.07C3038 1188.77 3048.77 1178 3062.07 1178C3075.36 1178 3086.13 1188.77 3086.13 1202.07Z" fill="#F8F8F8"/>
<path d="M195.5 662.5C195.5 653.833 198.5 646.5 204.5 640.5C210.5 634.5 217.833 631.5 226.5 631.5C235.167 631.5 242.5 634.5 248.5 640.5C254.5 646.5 257.5 653.833 257.5 662.5C257.5 671.167 254.5 678.5 248.5 684.5C242.5 690.5 235.167 693.5 226.5 693.5C217.833 693.5 210.5 690.5 204.5 684.5C198.5 678.5 195.5 671.167 195.5 662.5ZM226.5 555.5C239.5 555.5 251 555 261 554C271 552.667 281.667 549.333 293 544C304.333 538.667 317.167 530.667 331.5 520C346.167 509.333 364.333 494.5 386 475.5C391.667 470.833 397.333 468.5 403 468.5C409.667 468.5 415.333 470.833 420 475.5C424.667 480.167 427 485.833 427 492.5C427 496.167 426 499.667 424 503C422.333 506.333 420.167 509.167 417.5 511.5C396.5 530.167 377.667 545.667 361 558C344.667 570 329.167 579.667 314.5 587C299.833 594 285.5 599 271.5 602C257.5 605 242.5 606.5 226.5 606.5C209.5 606.5 193.833 605.167 179.5 602.5C165.5 599.5 151.333 594.333 137 587C122.667 579.667 107.333 570 91 558C74.6667 545.667 55.8333 530.167 34.5 511.5C31.8333 509.167 29.5 506.333 27.5 503C25.8333 499.667 25 496.167 25 492.5C25 485.833 27.3333 480.167 32 475.5C36.6667 470.833 42.3333 468.5 49 468.5C52.3333 468.5 55.3333 469.167 58 470.5C60.6667 471.833 63.3333 473.5 66 475.5C87.3333 494.167 105.167 508.833 119.5 519.5C134.167 530.167 147.167 538.167 158.5 543.5C170.167 548.833 181.167 552.167 191.5 553.5C201.833 554.833 213.5 555.5 226.5 555.5ZM768.953 638.5C780.286 638.5 789.62 636.5 796.953 632.5C804.286 628.167 809.953 623 813.953 617C818.286 611 821.12 604.5 822.453 597.5C824.12 590.167 824.953 583.5 824.953 577.5C824.953 571.5 824.12 565 822.453 558C821.12 550.667 818.286 544 813.953 538C809.953 532 804.286 527 796.953 523C789.62 518.667 780.286 516.5 768.953 516.5H566.953C555.286 516.5 545.786 518.667 538.453 523C531.453 527 525.786 532 521.453 538C517.453 544 514.62 550.667 512.953 558C511.62 565 510.953 571.5 510.953 577.5C510.953 583.5 511.62 590.167 512.953 597.5C514.62 604.5 517.453 611 521.453 617C525.786 623 531.453 628.167 538.453 632.5C545.786 636.5 555.286 638.5 566.953 638.5H768.953ZM871.453 577.5C871.453 590.167 869.286 603 864.953 616C860.953 628.667 854.953 640.333 846.953 651C838.953 661.333 829.286 669.833 817.953 676.5C806.62 683.167 793.786 686.5 779.453 686.5H551.453C537.786 685.833 525.62 682.167 514.953 675.5C504.286 668.5 495.12 659.833 487.453 649.5C480.12 639.167 474.453 627.667 470.453 615C466.453 602.333 464.453 589.833 464.453 577.5C464.453 564.833 466.453 552.167 470.453 539.5C474.786 526.5 480.953 514.833 488.953 504.5C496.953 493.833 506.62 485.167 517.953 478.5C529.286 471.833 542.12 468.5 556.453 468.5H784.453C798.12 469.167 810.286 473 820.953 480C831.62 486.667 840.62 495.167 847.953 505.5C855.62 515.833 861.453 527.333 865.453 540C869.453 552.667 871.453 565.167 871.453 577.5ZM969.484 577.5C969.484 583.5 970.151 590.167 971.484 597.5C973.151 604.5 975.984 611 979.984 617C984.318 623 989.984 628.167 996.984 632.5C1004.32 636.5 1013.82 638.5 1025.48 638.5H1224.48C1235.82 638.5 1245.15 636.5 1252.48 632.5C1259.82 628.167 1265.48 623 1269.48 617C1273.82 611 1276.65 604.5 1277.98 597.5C1279.65 590.167 1280.48 583.5 1280.48 577.5V493C1280.48 486.333 1282.82 480.667 1287.48 476C1292.15 471.333 1297.82 469 1304.48 469C1311.15 469 1316.82 471.333 1321.48 476C1326.15 480.667 1328.48 486.333 1328.48 493V577.5C1328.48 590.167 1326.32 603 1321.98 616C1317.98 628.667 1311.98 640.333 1303.98 651C1295.98 661.333 1286.32 669.833 1274.98 676.5C1263.65 683.167 1250.82 686.5 1236.48 686.5H1008.48C994.818 685.833 982.651 682.167 971.984 675.5C961.318 668.5 952.151 659.833 944.484 649.5C937.151 639.167 931.484 627.667 927.484 615C923.484 602.333 921.484 589.833 921.484 577.5V493C921.484 486.333 923.818 480.667 928.484 476C933.151 471.333 938.818 469 945.484 469C952.151 469 957.818 471.333 962.484 476C967.151 480.667 969.484 486.333 969.484 493V577.5ZM1746.52 468.5C1753.18 468.5 1758.85 470.833 1763.52 475.5C1768.18 480.167 1770.52 485.833 1770.52 492.5C1770.52 499.167 1768.18 504.833 1763.52 509.5C1758.85 514.167 1753.18 516.5 1746.52 516.5H1598.52V662.5C1598.52 669.167 1596.18 674.833 1591.52 679.5C1586.85 684.167 1581.18 686.5 1574.52 686.5C1567.85 686.5 1562.18 684.167 1557.52 679.5C1552.85 674.833 1550.52 669.167 1550.52 662.5V516.5H1400.52C1394.52 515.833 1389.35 513.333 1385.02 509C1380.68 504.333 1378.52 498.833 1378.52 492.5C1378.52 485.833 1380.85 480.167 1385.52 475.5C1390.18 470.833 1395.85 468.5 1402.52 468.5H1746.52ZM2211.91 662.5C2211.91 669.167 2209.58 674.833 2204.91 679.5C2200.24 684.167 2194.58 686.5 2187.91 686.5C2181.24 686.5 2175.58 684.167 2170.91 679.5C2166.24 674.833 2163.91 669.167 2163.91 662.5V601.5H1868.41V662.5C1868.41 669.167 1866.08 674.833 1861.41 679.5C1856.74 684.167 1851.08 686.5 1844.41 686.5C1837.74 686.5 1832.08 684.167 1827.41 679.5C1822.74 674.833 1820.41 669.167 1820.41 662.5V492.5C1820.41 485.833 1822.74 480.167 1827.41 475.5C1832.08 470.833 1837.74 468.5 1844.41 468.5C1851.08 468.5 1856.74 470.833 1861.41 475.5C1866.08 480.167 1868.41 485.833 1868.41 492.5V553.5H2163.91V492.5C2163.91 485.833 2166.24 480.167 2170.91 475.5C2175.58 470.833 2181.24 468.5 2187.91 468.5C2194.58 468.5 2200.24 470.833 2204.91 475.5C2209.58 480.167 2211.91 485.833 2211.91 492.5V662.5ZM2566.32 638.5C2577.65 638.5 2586.98 636.5 2594.32 632.5C2601.65 628.167 2607.32 623 2611.32 617C2615.65 611 2618.48 604.5 2619.82 597.5C2621.48 590.167 2622.32 583.5 2622.32 577.5C2622.32 571.5 2621.48 565 2619.82 558C2618.48 550.667 2615.65 544 2611.32 538C2607.32 532 2601.65 527 2594.32 523C2586.98 518.667 2577.65 516.5 2566.32 516.5H2364.32C2352.65 516.5 2343.15 518.667 2335.82 523C2328.82 527 2323.15 532 2318.82 538C2314.82 544 2311.98 550.667 2310.32 558C2308.98 565 2308.32 571.5 2308.32 577.5C2308.32 583.5 2308.98 590.167 2310.32 597.5C2311.98 604.5 2314.82 611 2318.82 617C2323.15 623 2328.82 628.167 2335.82 632.5C2343.15 636.5 2352.65 638.5 2364.32 638.5H2566.32ZM2668.82 577.5C2668.82 590.167 2666.65 603 2662.32 616C2658.32 628.667 2652.32 640.333 2644.32 651C2636.32 661.333 2626.65 669.833 2615.32 676.5C2603.98 683.167 2591.15 686.5 2576.82 686.5H2348.82C2335.15 685.833 2322.98 682.167 2312.32 675.5C2301.65 668.5 2292.48 659.833 2284.82 649.5C2277.48 639.167 2271.82 627.667 2267.82 615C2263.82 602.333 2261.82 589.833 2261.82 577.5C2261.82 564.833 2263.82 552.167 2267.82 539.5C2272.15 526.5 2278.32 514.833 2286.32 504.5C2294.32 493.833 2303.98 485.167 2315.32 478.5C2326.65 471.833 2339.48 468.5 2353.82 468.5H2581.82C2595.48 469.167 2607.65 473 2618.32 480C2628.98 486.667 2637.98 495.167 2645.32 505.5C2652.98 515.833 2658.82 527.333 2662.82 540C2666.82 552.667 2668.82 565.167 2668.82 577.5ZM2718.85 492.5C2718.85 485.833 2721.18 480.167 2725.85 475.5C2730.51 470.833 2736.18 468.5 2742.85 468.5H3042.35C3051.68 468.5 3060.35 470.333 3068.35 474C3076.68 477.333 3083.85 482 3089.85 488C3096.18 494 3101.01 501 3104.35 509C3108.01 517 3109.85 525.667 3109.85 535C3109.85 544.333 3108.01 553 3104.35 561C3101.01 569 3096.18 576 3089.85 582C3083.85 588 3076.68 592.833 3068.35 596.5C3060.35 599.833 3051.68 601.5 3042.35 601.5H2782.35C2778.01 602.167 2774.35 604.167 2771.35 607.5C2768.35 610.833 2766.85 615 2766.85 620V662.5C2766.85 669.167 2764.35 674.833 2759.35 679.5C2754.68 684.167 2749.18 686.5 2742.85 686.5C2736.18 686.5 2730.51 684.167 2725.85 679.5C2721.18 674.833 2718.85 669.167 2718.85 662.5V614.5C2718.85 606.167 2720.35 598.333 2723.35 591C2726.35 583.333 2730.51 576.833 2735.85 571.5C2741.51 565.833 2747.85 561.5 2754.85 558.5C2762.18 555.167 2770.18 553.5 2778.85 553.5H3044.35C3049.35 553.5 3053.68 551.833 3057.35 548.5C3061.35 544.833 3063.35 540.333 3063.35 535C3063.35 530 3061.35 525.667 3057.35 522C3053.68 518.333 3049.35 516.5 3044.35 516.5H2742.85C2736.18 516.5 2730.51 514.167 2725.85 509.5C2721.18 504.833 2718.85 499.167 2718.85 492.5ZM3207.77 662.5C3207.77 669.167 3205.43 674.833 3200.77 679.5C3196.1 684.167 3190.43 686.5 3183.77 686.5C3177.1 686.5 3171.43 684.167 3166.77 679.5C3162.1 674.833 3159.77 669.167 3159.77 662.5V492.5C3159.77 485.833 3162.1 480.167 3166.77 475.5C3171.43 470.833 3177.1 468.5 3183.77 468.5C3190.43 468.5 3196.1 470.833 3200.77 475.5C3205.43 480.167 3207.77 485.833 3207.77 492.5V662.5ZM3300.41 677.5C3295.41 683.5 3289.24 686.5 3281.91 686.5C3275.24 686.5 3269.58 684.167 3264.91 679.5C3260.24 674.833 3257.91 669.167 3257.91 662.5C3257.91 656.5 3259.58 651.667 3262.91 648L3384.41 484.5C3390.08 476.833 3397.58 470.667 3406.91 466C3416.24 461 3426.24 458.5 3436.91 458.5C3446.91 458.5 3456.41 460.667 3465.41 465C3474.41 469.333 3481.74 475.333 3487.41 483L3608.91 645.5C3610.91 647.833 3612.58 650.5 3613.91 653.5C3615.24 656.167 3615.91 659.167 3615.91 662.5C3615.91 669.167 3613.58 674.833 3608.91 679.5C3604.24 684.167 3598.58 686.5 3591.91 686.5C3583.91 686.5 3577.58 683.333 3572.91 677L3456.41 521.5C3454.08 518.833 3451.08 516 3447.41 513C3444.08 509.667 3440.58 508 3436.91 508C3433.24 508 3429.58 509.667 3425.91 513C3422.58 516 3419.91 518.833 3417.91 521.5L3300.41 677.5Z" fill="white"/>
<path d="M2908.04 868.835C2911.42 868.835 2914.29 870.301 2916.66 873.234C2919.03 876.167 2920.21 879.728 2920.21 883.917C2920.21 888.107 2919.03 891.668 2916.66 894.601C2914.29 897.534 2911.42 899 2908.04 899H2734.17C2730.79 899 2727.91 897.534 2725.55 894.601C2723.18 891.668 2722 888.107 2722 883.917V853.752C2722 848.515 2722.76 843.592 2724.28 838.984C2725.8 834.166 2727.91 830.081 2730.62 826.729C2733.49 823.168 2736.7 820.445 2740.25 818.56C2743.97 816.465 2748.02 815.417 2752.42 815.417H2887C2889.54 815.417 2891.74 814.37 2893.59 812.275C2895.62 809.971 2896.64 807.143 2896.64 803.791C2896.64 800.649 2895.62 797.926 2893.59 795.622C2891.74 793.317 2889.54 792.165 2887 792.165H2734.17C2730.79 792.165 2727.91 790.699 2725.55 787.766C2723.18 784.833 2722 781.272 2722 777.083C2722 772.893 2723.18 769.332 2725.55 766.399C2727.91 763.466 2730.79 762 2734.17 762H2885.99C2890.72 762 2895.12 763.152 2899.17 765.456C2903.4 767.551 2907.03 770.484 2910.07 774.255C2913.28 778.025 2915.73 782.424 2917.42 787.452C2919.28 792.479 2920.21 797.926 2920.21 803.791C2920.21 809.657 2919.28 815.103 2917.42 820.131C2915.73 825.158 2913.28 829.557 2910.07 833.328C2907.03 837.099 2903.4 840.136 2899.17 842.44C2895.12 844.535 2890.72 845.583 2885.99 845.583H2753.94C2751.74 846.002 2749.88 847.258 2748.36 849.353C2746.84 851.448 2746.08 854.067 2746.08 857.209V868.835H2908.04Z" fill="white"/>
<path d="M3093.18 868.835C3098.93 868.835 3103.66 867.578 3107.38 865.064C3111.09 862.341 3113.97 859.094 3115.99 855.323C3118.19 851.553 3119.63 847.468 3120.3 843.069C3121.15 838.46 3121.57 834.271 3121.57 830.5C3121.57 826.729 3121.15 822.644 3120.3 818.245C3119.63 813.637 3118.19 809.447 3115.99 805.677C3113.97 801.906 3111.09 798.764 3107.38 796.25C3103.66 793.527 3098.93 792.165 3093.18 792.165H2991.29C2985.38 792.165 2980.56 793.527 2976.84 796.25C2973.29 798.764 2970.42 801.906 2968.23 805.677C2966.2 809.447 2964.76 813.637 2963.92 818.245C2963.24 822.644 2962.9 826.729 2962.9 830.5C2962.9 834.271 2963.24 838.46 2963.92 843.069C2964.76 847.468 2966.2 851.553 2968.23 855.323C2970.42 859.094 2973.29 862.341 2976.84 865.064C2980.56 867.578 2985.38 868.835 2991.29 868.835H3093.18ZM3145.4 830.5C3145.4 838.46 3144.3 846.525 3142.1 854.695C3140.07 862.655 3137.03 869.987 3132.98 876.69C3128.92 883.184 3124.02 888.526 3118.28 892.716C3112.53 896.905 3106.02 899 3098.76 899H2983.18C2976.25 899 2970.08 896.905 2964.68 892.716C2959.27 888.526 2954.62 883.184 2950.74 876.69C2947.02 869.987 2944.15 862.55 2942.12 854.381C2940.09 846.211 2939.08 838.251 2939.08 830.5C2939.08 822.54 2940.09 814.58 2942.12 806.619C2944.32 798.45 2947.44 791.118 2951.5 784.624C2955.55 777.92 2960.45 772.474 2966.2 768.284C2971.94 764.095 2978.45 762 2985.71 762H3101.29C3108.22 762.419 3114.39 764.828 3119.8 769.227C3125.2 773.417 3129.77 778.758 3133.48 785.252C3137.37 791.746 3140.33 798.973 3142.35 806.933C3144.38 814.894 3145.4 822.749 3145.4 830.5Z" fill="white"/>
<path d="M3356.8 868.835C3360.18 868.835 3363.05 870.301 3365.42 873.234C3367.78 876.167 3368.97 879.728 3368.97 883.917C3368.97 888.107 3367.78 891.668 3365.42 894.601C3363.05 897.534 3360.18 899 3356.8 899H3182.92C3179.55 899 3176.67 897.534 3174.31 894.601C3171.94 891.668 3170.76 888.107 3170.76 883.917V853.752C3170.76 848.515 3171.52 843.592 3173.04 838.984C3174.56 834.166 3176.67 830.081 3179.38 826.729C3182.25 823.168 3185.46 820.445 3189.01 818.56C3192.73 816.465 3196.78 815.417 3201.17 815.417H3335.76C3338.3 815.417 3340.49 814.37 3342.35 812.275C3344.38 809.971 3345.39 807.143 3345.39 803.791C3345.39 800.649 3344.38 797.926 3342.35 795.622C3340.49 793.317 3338.3 792.165 3335.76 792.165H3182.92C3179.55 792.165 3176.67 790.699 3174.31 787.766C3171.94 784.833 3170.76 781.272 3170.76 777.083C3170.76 772.893 3171.94 769.332 3174.31 766.399C3176.67 763.466 3179.55 762 3182.92 762H3334.75C3339.48 762 3343.87 763.152 3347.93 765.456C3352.15 767.551 3355.79 770.484 3358.83 774.255C3362.04 778.025 3364.49 782.424 3366.18 787.452C3368.04 792.479 3368.97 797.926 3368.97 803.791C3368.97 809.657 3368.04 815.103 3366.18 820.131C3364.49 825.158 3362.04 829.557 3358.83 833.328C3355.79 837.099 3352.15 840.136 3347.93 842.44C3343.87 844.535 3339.48 845.583 3334.75 845.583H3202.69C3200.5 846.002 3198.64 847.258 3197.12 849.353C3195.6 851.448 3194.84 854.067 3194.84 857.209V868.835H3356.8Z" fill="white"/>
<path d="M3423.17 830.5C3423.17 826.31 3424.35 822.749 3426.71 819.817C3429.08 816.884 3431.95 815.417 3435.33 815.417H3561.3C3563.84 815.417 3566.03 814.265 3567.89 811.961C3569.75 809.657 3570.68 806.829 3570.68 803.477C3570.68 800.335 3569.75 797.716 3567.89 795.622C3566.03 793.317 3563.84 792.165 3561.3 792.165H3406.44C3403.06 792.165 3400.19 790.699 3397.82 787.766C3395.45 784.833 3394.27 781.272 3394.27 777.083C3394.27 772.893 3395.45 769.332 3397.82 766.399C3400.19 763.466 3403.06 762 3406.44 762H3560.04C3564.77 762 3569.16 763.047 3573.22 765.142C3577.44 767.237 3581.07 770.17 3584.11 773.94C3587.16 777.711 3589.52 782.11 3591.21 787.138C3593.07 792.165 3594 797.612 3594 803.477C3594 808.714 3593.24 813.637 3591.72 818.245C3590.37 822.854 3588.42 826.939 3585.89 830.5C3591.3 838.46 3594 847.468 3594 857.523C3594 863.388 3593.07 868.835 3591.21 873.862C3589.52 878.89 3587.16 883.289 3584.11 887.06C3581.07 890.83 3577.44 893.763 3573.22 895.858C3569.16 897.953 3564.77 899 3560.04 899H3406.44C3403.06 899 3400.19 897.534 3397.82 894.601C3395.45 891.668 3394.27 888.107 3394.27 883.917C3394.27 879.728 3395.45 876.167 3397.82 873.234C3400.19 870.301 3403.06 868.835 3406.44 868.835H3561.3C3563.84 868.835 3566.03 867.787 3567.89 865.693C3569.75 863.388 3570.68 860.665 3570.68 857.523C3570.68 854.171 3569.75 851.343 3567.89 849.039C3566.03 846.735 3563.84 845.583 3561.3 845.583H3435.33C3431.95 845.583 3429.08 844.116 3426.71 841.183C3424.35 838.251 3423.17 834.69 3423.17 830.5Z" fill="white"/>
</svg>
